<svg xmlns="http://www.w3.org/2000/svg" xmlns:xlink="http://www.w3.org/1999/xlink" width="2113.839" height="2980.379" viewBox="0 0 2113.839 2980.379">
  <defs>
    <filter id="furamingoMedias" x="0" y="0" width="2113.839" height="2980.379" filterUnits="userSpaceOnUse">
      <feOffset dy="6" input="SourceAlpha"/>
      <feGaussianBlur stdDeviation="6" result="blur"/>
      <feFlood flood-opacity="0.282"/>
      <feComposite operator="in" in2="blur"/>
      <feComposite in="SourceGraphic"/>
    </filter>
  </defs>
  <g transform="matrix(1, 0, 0, 1, 0, 0)" filter="url(#furamingoMedias)">
    <path id="furamingoMedias-2" data-name="furamingoMedias" d="M8509.865-8457.486,8461-9156.441l-113.72,585.014a44.473,44.473,0,0,1-43.542,35.939,44.79,44.79,0,0,1-8.525-.83,44.037,44.037,0,0,1-16.277-6.721,44.349,44.349,0,0,1-12.032-12.039,44.407,44.407,0,0,1-6.658-15.67,44.054,44.054,0,0,1-.136-17.613l176.957-910.354-64.337-919.994a41.831,41.831,0,0,1,38.755-44.592h.022l2.927-.09a41.871,41.871,0,0,1,41.628,38.852l42.585,608.99,53.133-273.363a44.461,44.461,0,0,1,43.547-35.932,45.22,45.22,0,0,1,8.521.82,44.149,44.149,0,0,1,28.334,18.754,44.115,44.115,0,0,1,6.766,33.3l-116.359,598.686L8593.2-8463.318A41.488,41.488,0,0,1,8583.056-8433a41.446,41.446,0,0,1-28.6,14.268c-.992.07-1.983.109-2.961.109A41.893,41.893,0,0,1,8509.865-8457.486ZM7810.823-9742c-120.192-28.191-191.569-105.174-225.876-142.17l-.014-.016c-83.518-90.725-133.649-206.4-149-343.809-14.5-134.777,10.866-265.25,71.426-367.379,15.807-26.348,26.6-40.164,40.992-56.453,12.9-14.516,30.57-34.4,62.3-84.273l0-.008c65.605-100.672,95.148-152.354,102.731-224.77,5.985-58.061-2.45-113.111-25.067-163.617l-.01-.027a293.764,293.764,0,0,0-14.566-27.588c-5.459-9.324-11.36-18.555-17.533-27.426a385.249,385.249,0,0,0-24.168-31.252c-21.187-24.607-43.93-44.2-67.6-58.246a194.2,194.2,0,0,0-43.115-19.125,172.709,172.709,0,0,0-23.824-5.352,169.846,169.846,0,0,0-25.312-1.889,214.637,214.637,0,0,0-62.972,9.947,205.705,205.705,0,0,0-27.466,10.932,193.7,193.7,0,0,0-24.235,13.977,175.8,175.8,0,0,0-20.6,16.316,149.559,149.559,0,0,0-16.545,17.965,119.369,119.369,0,0,0-12.1,18.906,90.15,90.15,0,0,0-7.232,19.139,107.321,107.321,0,0,0-2.617,15.275,127.085,127.085,0,0,0-.562,16.244,135.872,135.872,0,0,0,1.479,16.563,130.375,130.375,0,0,0,3.51,16.232,113.37,113.37,0,0,0,5.521,15.256,91,91,0,0,0,7.512,13.621c5.932,8.785,12.96,15.441,20.892,19.789a69.446,69.446,0,0,0,30.937,7.492c9.314,0,17.679-2.186,24.191-6.328l.025-.014c.1-.057.621-.391,1.417-.967-.9.061-1.808.094-2.705.094a41.405,41.405,0,0,1-20.794-5.75,42.876,42.876,0,0,1-15.461-15.385c-10.265-17.088-6.983-35.879-1.052-46.785a46.959,46.959,0,0,1,9.967-13.752,53.013,53.013,0,0,1,13.131-9.115,62.848,62.848,0,0,1,14.38-5.049,63.437,63.437,0,0,1,13.785-1.561,58.831,58.831,0,0,1,23.279,4.789,68.246,68.246,0,0,1,17.813,11.3,80.626,80.626,0,0,1,12.161,13.229,59.386,59.386,0,0,1,6.347,10.615,75.882,75.882,0,0,1,8.567,29.59,83.022,83.022,0,0,1-3.826,31.66c-7.461,25.2-25.66,39.129-34.405,45.83a111.349,111.349,0,0,1-20.757,12.119,122.056,122.056,0,0,1-18.463,6.6,117.5,117.5,0,0,1-23.062,3.764c-2.5.178-5.063.266-7.631.266h-.019c-24.938,0-49.108-8.424-71.848-25.033-49.8-35.686-64.2-99.707-61.382-143.691,5.3-88.289,78.111-140.42,121.047-163.627,34.68-18.619,73.127-28.061,114.279-28.061a288.709,288.709,0,0,1,52.4,4.941c116,22.09,176.072,113.461,198.689,147.861,70.3,106.338,64.461,219.137,60.993,251.18-9.088,90.15-47.653,151.016-111.558,251.852-30.137,47.332-48.747,69.168-63.7,86.711l-.019.021-1.96,2.293c-12.347,14-23.012,26.082-38.2,52.879-53.134,92.395-75.165,209.279-62.038,329.129,14.081,125.094,58.483,228.441,131.978,307.158l.013.014c29.057,31.605,89.512,97.369,191.293,121.045a345.083,345.083,0,0,0,76.364,8.443,357.854,357.854,0,0,0,37.617-1.99c-108.661-1.041-198.239-59.074-215.225-70.795-151.231-102.953-180.631-281.34-186.037-333.559-12.588-115.213,18.622-235.541,90.259-347.971,63.184-98.412,152.37-183.764,251.127-240.338,98.5-56.379,209.28-84.967,329.267-84.967a842.544,842.544,0,0,1,143.488,12.791c144.841,25.072,258.413,79.725,295.733,97.686,183.5,85.906,331.686,224.711,440.451,412.553,77.94,133.621,110.572,250.791,120.984,294.965,17.812,73.83,26.044,150.154,25.163,233.34v17.674a33.564,33.564,0,0,1-1.105,8.348,33.6,33.6,0,0,1-2.636,7.02,28.884,28.884,0,0,1-5.128,7.156c-3.885,3.967-10.988,8.682-22.751,8.682a35.054,35.054,0,0,1-14.86-3.07,29.862,29.862,0,0,1-10.142-7.7,33.288,33.288,0,0,1-5.875-10.008,32.832,32.832,0,0,1-2.119-10.041v-.02l-.011-18.133c0-18.213-.794-35.961-1.751-55.617-.857-20.865-2.63-42.184-5.266-63.371v-.016c-.164-1.719-1.745-14.271-4.692-32.682-2.542-15.879-6.7-39.77-12.044-63.408-53.979-239.672-193.273-406.447-300.62-504.158-96.582-88.549-187.012-139.555-221.408-157.377-1.282-.658-2.109-1.088-2.736-1.439-145.968-69.178-285.122-104.258-413.573-104.258-108.13,0-207.919,25.471-296.6,75.691-226.609,128.605-318.285,344.523-308.608,501.455,4.333,69.336,30,239.34,174.3,320.186l1.03.576.059.059.722.717a426.141,426.141,0,0,0,41.457,20.633A361.043,361.043,0,0,0,7860.6-9876a308.533,308.533,0,0,0,40.624,8.969,271.293,271.293,0,0,0,39.851,3.012c47.281,0,81.225-13.441,97.249-21.455l.007,0a204.883,204.883,0,0,0,21.725-12.295,222.174,222.174,0,0,0,30.332-23.506,195.025,195.025,0,0,0,30.521-35.8,175.773,175.773,0,0,0,12.7-22.848,170.892,170.892,0,0,0,9.6-26.322,241.823,241.823,0,0,0,6.439-41.828,172.332,172.332,0,0,0-1.62-37.459,124.507,124.507,0,0,0-9.53-32.2,98.824,98.824,0,0,0-17.3-26.117c-15.666-17.057-45-35.424-72.372-35.424a53.506,53.506,0,0,0-20.169,3.785,67.263,67.263,0,0,0-23.4,17.146,72.218,72.218,0,0,0-12.792,19.588,38.115,38.115,0,0,1,5.633-4.852,37.737,37.737,0,0,1,11.264-6,41.394,41.394,0,0,1,13.105-2.09c13.323,0,27.332,6.039,37.479,16.164,8.324,7.834,13.631,18.537,15.339,30.957a65.173,65.173,0,0,1,.117,16.686,62.059,62.059,0,0,1-3.707,15.082c-11.709,30.314-44.95,44.125-70.873,44.125a72.6,72.6,0,0,1-7.508-.385,74.865,74.865,0,0,1-32.454-11.527,93.132,93.132,0,0,1-13.795-10.73,107.8,107.8,0,0,1-11.9-13.211,119.522,119.522,0,0,1-9.785-15.068,125.132,125.132,0,0,1-7.467-16.312,119.448,119.448,0,0,1-4.938-16.957,105.08,105.08,0,0,1-2.188-16.979c-2.682-60.309,48.142-103.555,92.482-122.268l.013,0a155.622,155.622,0,0,1,57.969-10.953c27.15,0,54.338,6.445,80.813,19.154,60.6,28.912,102.245,92.58,114.249,174.684,11.948,77.2-15.576,139.723-33.051,170.123-25.956,44.432-58.023,69.076-81.435,87.068l-.012.012c-49.649,36.4-106.571,61.576-164.611,72.8h-.016c-18,3.111-45.585,7.248-77.271,7.248A406.264,406.264,0,0,1,7810.823-9742Zm-567.756-805.367-20.015-6.682c-3.976-1.451-6.88-3.969-9.42-8.176-2.72-4.5-5.217-11.311-7.859-21.439-5.345-20.494-11.469-54.98-21.838-114.164-1.794-10.711-3.563-18.271-5.435-26.271l-.059-.244-2.72-11.918-3.25-14.9.991.32,13.513,4.422a85.316,85.316,0,0,0,9.679,2.295,137.453,137.453,0,0,0,24.729,2.24,135.586,135.586,0,0,0,26.853-2.656l14.464-2.928-.3.965-4.1,13.123c-15.519,49.678-20.655,100.617-16.636,165.16l2.284,21.141Zm-27.68-202.17a127.87,127.87,0,0,1-27.089-4.2,76.444,76.444,0,0,1-10.518-3.557l-3.912-1.766-.068-.291-.916-3.9c-7.921-33.582-12.729-60.674-15.134-85.254-2.795-28.582-2.247-53.621,1.663-76.555a202.618,202.618,0,0,1,9.308-35.34,191.546,191.546,0,0,1,16.114-33.533,213.527,213.527,0,0,1,23.779-31.848,273.728,273.728,0,0,1,32.29-30.273l7.4-6.377.362.623a143.073,143.073,0,0,0,12.2,17.734,148.622,148.622,0,0,0,22.835,22.965,129.274,129.274,0,0,0,34.151,19.865,124.331,124.331,0,0,0,21.537,6.18,131.95,131.95,0,0,0,24.632,2.287,153.214,153.214,0,0,0,27.815-2.637,194.66,194.66,0,0,0,31.1-8.6l.584,1.021-40.019,32.779a412.032,412.032,0,0,0-44.564,46.691,409.036,409.036,0,0,0-36.2,52.178,365.732,365.732,0,0,0-26.414,55.219,296.421,296.421,0,0,0-15.2,55.842l-.891,5.41-5.28,1.553c-1.408.406-14.293,3.945-32.562,3.949C7220.172-10749.365,7217.816-10749.426,7215.388-10749.535Zm17.756-218.686a139.932,139.932,0,0,0-12.822,17.139,122.168,122.168,0,0,0-9.51,18.266,121.338,121.338,0,0,0-6.241,19.58,134.825,134.825,0,0,0-3.019,21.09,165.746,165.746,0,0,0,.164,22.789,220.235,220.235,0,0,0,3.3,24.664c1.586,8.346,3.709,17.207,6.3,26.342a125.022,125.022,0,0,0,13.761.766c16.306-44.494,37.288-83.436,62.36-115.75a276.983,276.983,0,0,1,17.685-22.711,141.3,141.3,0,0,1-29.446-10.736,141.661,141.661,0,0,1-26.734-17.289A174.841,174.841,0,0,0,7233.144-10968.221Zm70.632-215.848a31.514,31.514,0,0,1,31.847-31.861,31.5,31.5,0,0,1,31.813,31.861,31.49,31.49,0,0,1-31.812,31.842A32.274,32.274,0,0,1,7303.775-11184.068Z" transform="translate(-7138 11375)" fill="#ff1983"/>
  </g>
</svg>
